    <svg display="none" xmlns="http://www.w3.org/2000/svg">
                    <symbol id="facebook" viewBox="0 0 128 128"><g ><rect fill="none" height="128" width="128"/><path clip-rule="evenodd" d="M68.369,128H7.065C3.162,128,0,124.836,0,120.935    V7.065C0,3.162,3.162,0,7.065,0h113.871C124.837,0,128,3.162,128,7.065v113.87c0,3.902-3.163,7.065-7.064,7.065H88.318V78.431    h16.638l2.491-19.318H88.318V46.78c0-5.593,1.553-9.404,9.573-9.404l10.229-0.004V20.094c-1.769-0.235-7.841-0.761-14.906-0.761    c-14.749,0-24.846,9.003-24.846,25.535v14.246H51.688v19.318h16.681V128z" fill="#4460A0" fill-rule="evenodd" id="Facebook"/></g></symbol>
                    <symbol id="twitter" viewBox="0 0 128 128"><g><rect clip-rule="evenodd" fill="none" fill-rule="evenodd" height="128" width="128"/><path clip-rule="evenodd" d="M128,23.294    c-4.703,2.142-9.767,3.59-15.079,4.237c5.424-3.328,9.587-8.606,11.548-14.892c-5.079,3.082-10.691,5.324-16.687,6.526    c-4.778-5.231-11.608-8.498-19.166-8.498c-14.493,0-26.251,12.057-26.251,26.927c0,2.111,0.225,4.16,0.676,6.133    C41.217,42.601,21.871,31.892,8.91,15.582c-2.261,3.991-3.554,8.621-3.554,13.552c0,9.338,4.636,17.581,11.683,22.412    c-4.297-0.131-8.355-1.356-11.901-3.359v0.331c0,13.051,9.053,23.937,21.074,26.403c-2.201,0.632-4.523,0.948-6.92,0.948    c-1.69,0-3.343-0.162-4.944-0.478c3.343,10.694,13.035,18.483,24.53,18.691c-8.986,7.227-20.315,11.533-32.614,11.533    c-2.119,0-4.215-0.123-6.266-0.37c11.623,7.627,25.432,12.088,40.255,12.088c48.309,0,74.717-41.026,74.717-76.612    c0-1.171-0.023-2.342-0.068-3.49C120.036,33.433,124.491,28.695,128,23.294" fill="#00AAEC" fill-rule="evenodd" id="Twitter_1_"/></g></symbol>
                    <symbol id="google" viewBox="0 0 512 512"><g><path d="M42.4,145.9c15.5-32.3,37.4-59.6,65-82.3c37.4-30.9,80.3-49.5,128.4-55.2c56.5-6.7,109.6,4,158.7,33.4   c12.2,7.3,23.6,15.6,34.5,24.6c2.7,2.2,2.4,3.5,0.1,5.7c-22.3,22.2-44.6,44.4-66.7,66.8c-2.6,2.6-4,2.4-6.8,0.3   c-64.8-49.9-159.3-36.4-207.6,29.6c-8.5,11.6-15.4,24.1-20.2,37.7c-0.4,1.2-1.2,2.3-1.8,3.5c-12.9-9.8-25.9-19.6-38.7-29.5   C72.3,169,57.3,157.5,42.4,145.9z" fill="#E94335"/><path d="M126,303.8c4.3,9.5,7.9,19.4,13.3,28.3c22.7,37.2,55.1,61.1,97.8,69.6c38.5,7.7,75.5,2.5,110-16.8   c1.2-0.6,2.4-1.2,3.5-1.8c0.6,0.6,1.1,1.3,1.7,1.8c25.8,20,51.7,40,77.5,60c-12.4,12.3-26.5,22.2-41.5,30.8   c-43.5,24.8-90.6,34.8-140.2,31C186.3,501.9,133,477.5,89,433.5c-19.3-19.3-35.2-41.1-46.7-66c10.7-8.2,21.4-16.3,32.1-24.5   C91.6,329.9,108.8,316.9,126,303.8z" fill="#34A853"/><path d="M429.9,444.9c-25.8-20-51.7-40-77.5-60c-0.6-0.5-1.2-1.2-1.7-1.8c8.9-6.9,18-13.6,25.3-22.4   c12.2-14.6,20.3-31.1,24.5-49.6c0.5-2.3,0.1-3.1-2.2-3c-1.2,0.1-2.3,0-3.5,0c-40.8,0-81.7-0.1-122.5,0.1c-4.5,0-5.5-1.2-5.4-5.5   c0.2-29,0.2-58,0-87c0-3.7,1-4.7,4.7-4.7c74.8,0.1,149.6,0.1,224.5,0c3.2,0,4.5,0.8,5.3,4.2c6.1,27.5,5.7,55.1,2,82.9   c-3,22.2-8.4,43.7-16.7,64.5c-12.3,30.7-30.4,57.5-54.2,80.5C431.6,443.8,430.7,444.3,429.9,444.9z" fill="#4285F3"/><path d="M126,303.8c-17.2,13.1-34.4,26.1-51.6,39.2c-10.7,8.1-21.4,16.3-32.1,24.5C34,352.1,28.6,335.8,24.2,319   c-8.4-32.5-9.7-65.5-5.1-98.6c3.6-26,11.1-51,23.2-74.4c15,11.5,29.9,23.1,44.9,34.6c12.9,9.9,25.8,19.7,38.7,29.5   c-2.2,10.7-5.3,21.2-6.3,32.2c-1.8,20,0.1,39.5,5.8,58.7C125.8,301.8,125.9,302.8,126,303.8z" fill="#FABB06"/></g></symbol>
                </svg>
               